# xmcd CD database file
#
# Track frame offsets:
#	150
#	11820
#	25747
#	38459
#	53740
#	67990
#	81680
#	104018
#	117930
#	131380
#	146257
#	159626
#	174395
#	186032
#	200385
#	211830
#	226290
#	238231
#	251627
#	275464
#	290290
#
# Disc length: 4036 seconds
#
# Revision: 0
# Processed by: cddbd v1.5.2PL0 Copyright (c) Steve Scherf et al.
# Submitted via: CDex 1.82
#
DISCID=260fc215
DTITLE=Don Byas - New York - Paris 1938-1955 - CD 1
DYEAR=2016
DGENRE=Jazz
TTITLE0=A Wee Bit Of Swing 
TTITLE1=Wham Re Bop Boom Bam
TTITLE2=Lafayette
TTITLE3=Harvard Blues
TTITLE4=Royal Garden Blues
TTITLE5=Sugar Blues
TTITLE6=Three Little Words
TTITLE7=Dance Of The Tambourine
TTITLE8=Riffin' And Jivin'
TTITLE9=Worried 'N Blue
TTITLE10=These Foolish Things
TTITLE11=You Need Coachin'
TTITLE12=Comes The Don
TTITLE13=Be Bop
TTITLE14=Something For You
TTITLE15=Pennies From Heaven
TTITLE16=Shoud I ?
TTITLE17=S.K. Blues Part 2
TTITLE18=Indiana
TTITLE19=Out Of Nowhere
TTITLE20=Slammin' Around
EXTD=YEAR: 2016
EXTT0=
EXTT1=
EXTT2=
EXTT3=
EXTT4=
EXTT5=
EXTT6=
EXTT7=
EXTT8=
EXTT9=
EXTT10=
EXTT11=
EXTT12=
EXTT13=
EXTT14=
EXTT15=
EXTT16=
EXTT17=
EXTT18=
EXTT19=
EXTT20=
PLAYORDER=
